<?xml version="1.0" standalone="no"?>
<!DOCTYPE svg PUBLIC "-//W3C//DTD SVG 20010904//EN"
 "http://www.w3.org/TR/2001/REC-SVG-20010904/DTD/svg10.dtd">
<svg version="1.0" xmlns="http://www.w3.org/2000/svg"
 width="1024.000000pt" height="1024.000000pt" viewBox="0 0 1024.000000 1024.000000"
 preserveAspectRatio="xMidYMid meet">
<metadata>
Created by potrace 1.11, written by Peter Selinger 2001-2013
</metadata>
<g transform="translate(0.000000,1024.000000) scale(0.100000,-0.100000)"
fill="#000000" stroke="none">
<path d="M4885 10214 c-1307 -72 -2466 -585 -3375 -1494 -1073 -1073 -1607
-2558 -1464 -4070 156 -1656 1111 -3126 2564 -3950 1030 -584 2243 -788 3417
-575 1360 247 2573 1053 3337 2217 708 1079 976 2365 760 3647 -214 1274 -931
2440 -1979 3222 -256 190 -486 330 -795 483 -564 280 -1134 441 -1770 501
-164 15 -562 26 -695 19z m505 -469 c150 -7 349 -30 530 -61 1326 -227 2515
-1063 3199 -2247 345 -597 545 -1247 601 -1952 11 -135 14 -567 5 -670 -50
-571 -166 -1050 -368 -1520 -39 -91 -155 -326 -166 -338 -4 -4 -20 -3 -34 2
-15 6 -27 8 -27 6 0 -3 11 -10 25 -15 32 -12 32 -12 -75 -190 -97 -162 -200
-314 -297 -438 -57 -73 -67 -81 -81 -70 -15 12 -16 11 -4 -4 8 -9 11 -22 7
-29 -6 -8 -10 -7 -17 2 -8 11 -9 10 -4 -4 7 -21 -60 -100 -77 -90 -6 4 -7 1
-3 -6 10 -15 -23 -53 -37 -44 -6 3 -7 1 -3 -6 18 -28 -429 -450 -670 -633
-153 -116 -362 -251 -375 -242 -8 4 -9 3 -5 -4 3 -6 -3 -16 -14 -22 -15 -8
-26 -7 -47 6 l-28 16 24 -19 23 -20 -82 -46 c-45 -26 -86 -44 -91 -41 -5 3 -9
0 -9 -5 0 -13 -189 -109 -345 -176 -60 -25 -123 -53 -140 -60 -16 -7 -111 -41
-210 -74 -386 -129 -739 -200 -1155 -232 -194 -15 -667 -6 -840 15 -770 95
-1431 335 -2040 739 -880 584 -1537 1453 -1854 2450 -97 304 -148 541 -193
902 -25 201 -25 796 0 1010 33 282 83 536 154 780 228 794 681 1530 1286 2094
817 760 1847 1193 2947 1240 172 7 259 6 490 -4z"/>
<path d="M4920 9200 c-36 -5 -123 -14 -194 -20 -803 -71 -1588 -397 -2216
-919 -569 -473 -987 -1073 -1245 -1786 -90 -248 -177 -637 -205 -915 -6 -58
-15 -132 -20 -165 -24 -156 0 -631 45 -895 61 -357 117 -562 225 -835 18 -44
43 -109 56 -144 45 -117 162 -341 275 -524 30 -48 59 -97 66 -109 31 -56 205
-286 293 -388 211 -244 419 -440 650 -614 52 -39 97 -73 100 -76 12 -13 186
-124 300 -193 150 -90 344 -185 535 -262 77 -31 149 -60 160 -64 38 -15 240
-82 260 -86 11 -2 47 -11 80 -19 105 -28 424 -84 610 -108 148 -19 220 -23
410 -21 127 1 268 6 315 12 47 5 130 15 185 21 145 15 143 15 340 55 99 20
218 48 265 62 47 14 105 31 130 38 75 20 213 73 307 116 24 10 49 19 56 19 7
0 21 6 32 13 11 8 43 22 70 32 28 11 52 22 55 25 3 3 55 31 115 62 61 30 126
65 145 77 19 11 46 26 60 33 14 7 27 15 30 19 3 4 21 15 40 26 51 27 207 130
259 169 25 19 51 32 58 30 7 -3 13 0 13 7 0 8 60 63 133 124 159 134 345 316
468 461 50 59 98 112 105 118 8 6 14 16 14 21 0 5 18 29 40 53 22 24 40 45 40
46 0 1 38 58 84 126 115 170 196 308 281 478 94 187 191 420 230 550 9 30 25
80 35 110 32 97 69 243 85 330 8 47 22 117 29 157 13 65 40 284 52 418 13 153
15 351 5 455 -7 63 -17 160 -22 215 -26 252 -70 483 -135 713 -34 117 -110
341 -139 407 -7 17 -27 64 -45 105 -369 853 -1050 1574 -1888 1998 -452 230
-963 378 -1452 422 -69 6 -141 13 -160 16 -69 10 -356 13 -420 4z m-526 -1681
c2 -2 64 -94 138 -204 74 -110 210 -312 303 -450 93 -137 189 -280 213 -317
l44 -68 18 23 c15 20 225 330 549 814 67 100 128 188 135 196 18 18 1691 19
1691 1 0 -10 -100 -160 -580 -871 -126 -187 -260 -385 -663 -983 -69 -102
-208 -309 -310 -460 -219 -325 -461 -683 -514 -759 -21 -29 -35 -59 -31 -65 4
-6 53 -78 109 -161 88 -129 420 -622 547 -812 42 -62 42 -63 92 -64 247 -5
446 -6 472 -2 l32 5 -42 62 c-23 33 -46 68 -52 77 -5 9 -62 93 -125 185 -123
182 -244 361 -493 729 l-158 234 107 158 c59 87 123 182 142 210 19 29 38 51
41 49 6 -4 111 -157 164 -241 14 -22 57 -85 94 -140 38 -55 179 -264 314 -465
135 -201 312 -464 394 -585 82 -121 171 -254 199 -295 28 -41 71 -107 95 -145
24 -39 59 -88 76 -110 18 -22 39 -53 49 -70 18 -32 93 -144 126 -187 11 -14
20 -29 20 -32 0 -3 -379 -6 -843 -6 -794 0 -845 1 -859 17 -9 10 -95 137 -192
283 -97 146 -196 292 -220 325 -24 33 -87 125 -140 205 -155 234 -231 343
-241 346 -6 2 -31 -29 -57 -69 -26 -40 -108 -162 -183 -272 -154 -225 -253
-372 -305 -450 -19 -29 -42 -63 -51 -76 -9 -13 -28 -42 -42 -64 -15 -22 -57
-85 -94 -140 l-68 -100 -847 -2 c-467 -2 -848 0 -848 2 0 3 48 76 108 163 59
86 112 164 117 173 9 14 191 285 405 600 36 53 127 188 202 300 75 112 156
233 181 269 24 36 91 135 148 220 118 177 281 420 400 595 l81 120 -18 33
c-11 18 -140 211 -287 430 -148 218 -361 534 -474 702 -113 168 -274 406 -358
530 -354 524 -405 602 -401 608 4 7 1684 8 1690 1z"/>
<path d="M6085 6952 l-100 -3 -113 -167 c-322 -477 -420 -623 -453 -673 l-37
-56 122 -179 c66 -99 128 -190 137 -202 l17 -23 34 48 c19 26 52 75 74 108 54
81 355 527 581 862 100 150 183 274 183 277 0 7 -314 12 -445 8z"/>
<path d="M3660 6942 c0 -4 316 -474 609 -907 74 -110 162 -242 196 -292 33
-51 63 -93 66 -93 3 0 40 52 83 115 42 63 79 115 84 115 6 0 156 -220 250
-367 l33 -52 -177 -263 c-97 -145 -238 -353 -312 -463 -75 -110 -181 -267
-237 -350 -56 -82 -146 -215 -200 -295 -54 -80 -176 -260 -270 -401 -95 -141
-187 -275 -204 -299 -17 -24 -31 -46 -31 -49 0 -4 124 -7 276 -6 l277 0 67
100 c36 55 118 176 181 269 63 92 123 182 134 200 11 17 67 101 125 186 57 85
125 187 151 225 l46 71 -79 118 c-44 66 -77 125 -74 133 7 17 195 298 244 365
l35 47 29 -42 c16 -23 52 -77 80 -120 28 -43 54 -75 58 -70 4 4 45 64 91 133
45 69 105 158 131 198 l49 73 -234 347 c-129 191 -290 430 -359 532 -68 102
-196 291 -283 420 -214 318 -265 392 -282 410 -11 13 -57 15 -283 15 -149 0
-270 -2 -270 -3z"/>
<path d="M7410 2820 c8 -5 24 -10 34 -10 26 0 18 6 -19 14 -22 5 -26 4 -15 -4z"/>
<path d="M7478 2803 c7 -3 16 -2 19 1 4 3 -2 6 -13 5 -11 0 -14 -3 -6 -6z"/>
<path d="M9150 3025 c0 -2 10 -10 23 -16 20 -11 21 -11 8 4 -13 16 -31 23 -31
12z"/>
<path d="M8556 2655 c10 -8 26 -14 34 -14 9 0 4 6 -10 14 -33 19 -49 19 -24 0z"/>
<path d="M8670 2646 c0 -2 7 -7 16 -10 8 -3 12 -2 9 4 -6 10 -25 14 -25 6z"/>
<path d="M8327 2569 c7 -7 15 -10 18 -7 3 3 -2 9 -12 12 -14 6 -15 5 -6 -5z"/>
<path d="M8560 2546 c0 -3 9 -10 20 -16 11 -6 20 -8 20 -6 0 3 -9 10 -20 16
-11 6 -20 8 -20 6z"/>
<path d="M8651 2494 c0 -11 3 -14 6 -6 3 7 2 16 -1 19 -3 4 -6 -2 -5 -13z"/>
<path d="M8590 2480 c0 -5 5 -10 11 -10 5 0 7 5 4 10 -3 6 -8 10 -11 10 -2 0
-4 -4 -4 -10z"/>
<path d="M8266 2442 c12 -11 64 -33 64 -27 0 5 -56 35 -67 35 -4 0 -3 -4 3 -8z"/>
<path d="M8415 2429 c-4 -6 -5 -12 -2 -15 2 -3 7 2 10 11 7 17 1 20 -8 4z"/>
<path d="M8660 2419 c0 -5 5 -7 10 -4 6 3 10 8 10 11 0 2 -4 4 -10 4 -5 0 -10
-5 -10 -11z"/>
<path d="M8615 2409 c-11 -17 1 -21 15 -4 8 9 8 15 2 15 -6 0 -14 -5 -17 -11z"/>
<path d="M8559 2373 c12 -24 61 -69 61 -57 0 9 -57 74 -66 74 -3 0 0 -8 5 -17z"/>
<path d="M8687 2328 c-2 -8 2 -23 10 -33 13 -19 14 -18 7 10 -8 37 -10 39 -17
23z"/>
<path d="M8523 2245 c0 -8 2 -13 5 -10 3 2 24 -7 48 -21 54 -32 59 -25 7 7
-21 13 -43 27 -49 31 -6 4 -11 1 -11 -7z"/>
<path d="M8056 2171 c-4 -6 -3 -11 3 -11 5 0 13 -10 16 -21 5 -16 9 -18 15 -9
4 7 15 10 24 7 9 -4 16 -3 16 2 0 5 -12 12 -27 16 -15 3 -31 11 -34 17 -4 7
-9 6 -13 -1z"/>
<path d="M8016 2153 c-6 -14 -5 -15 5 -6 7 7 10 15 7 18 -3 3 -9 -2 -12 -12z"/>
<path d="M7448 1693 c7 -3 16 -2 19 1 4 3 -2 6 -13 5 -11 0 -14 -3 -6 -6z"/>
<path d="M7500 1546 c0 -2 7 -7 16 -10 8 -3 12 -2 9 4 -6 10 -25 14 -25 6z"/>
<path d="M7700 1523 c0 -4 5 -15 10 -23 8 -13 10 -13 10 2 0 9 -4 20 -10 23
-5 3 -10 3 -10 -2z"/>
<path d="M7365 1328 c7 -17 64 -52 72 -44 4 3 1 6 -5 6 -6 0 -24 12 -41 26
-17 14 -29 20 -26 12z"/>
<path d="M7560 1276 c0 -2 8 -10 18 -17 15 -13 16 -12 3 4 -13 16 -21 21 -21
13z"/>
<path d="M7370 1226 c0 -2 12 -12 28 -21 l27 -18 -19 21 c-17 20 -36 29 -36
18z"/>
<path d="M6747 969 c7 -7 15 -10 18 -7 3 3 -2 9 -12 12 -14 6 -15 5 -6 -5z"/>
</g>
</svg>
